<?xml version="1.0" standalone="no"?>
<!DOCTYPE svg PUBLIC "-//W3C//DTD SVG 20010904//EN"
 "http://www.w3.org/TR/2001/REC-SVG-20010904/DTD/svg10.dtd">
<svg version="1.0" xmlns="http://www.w3.org/2000/svg"
 width="48.000000pt" height="48.000000pt" viewBox="0 0 48.000000 48.000000"
 preserveAspectRatio="xMidYMid meet">
<metadata>
Created by potrace 1.10, written by Peter Selinger 2001-2011
</metadata>
<g transform="translate(0.000000,48.000000) scale(0.100000,-0.100000)">
  <path d="M132 438 c-15 -15 -15 -61 0 -76 7 -7 36 -12 65 -12 29 0 53 -2 53
  -4 0 -2 -34 -57 -75 -123 -74 -116 -88 -156 -63 -181 17 -17 239 -17 256 0 15
  15 15 61 0 76 -7 7 -39 12 -75 12 -35 0 -63 2 -63 4 0 3 34 59 75 124 73 117
  87 156 63 180 -16 16 -220 16 -236 0z m225 -24 c2 -5 -37 -74 -87 -153 -49
  -79 -90 -145 -90 -147 0 -2 39 -5 88 -6 69 -2 87 -6 87 -18 0 -12 -20 -16
  -109 -18 -62 -1 -114 2 -119 7 -6 6 21 60 79 152 49 78 91 146 92 151 2 4 -30
  8 -72 8 -72 0 -94 8 -81 30 9 14 207 9 212 -6z" fill="#ffffff" stroke="none"/>
  <path d="M132 438 c-15 -15 -15 -61 0 -76 7 -7 36 -12 65 -12 29 0 53 -2 53
  -4 0 -2 -34 -57 -75 -123 -74 -116 -88 -156 -63 -181 17 -17 239 -17 256 0 15
  15 15 61 0 76 -7 7 -39 12 -75 12 -35 0 -63 2 -63 4 0 3 34 59 75 124 73 117
  87 156 63 180 -16 16 -220 16 -236 0z m225 -24 c2 -5 -37 -74 -87 -153 -49
  -79 -90 -145 -90 -147 0 -2 39 -5 88 -6 69 -2 87 -6 87 -18 0 -12 -20 -16
  -109 -18 -62 -1 -114 2 -119 7 -6 6 21 60 79 152 49 78 91 146 92 151 2 4 -30
  8 -72 8 -72 0 -94 8 -81 30 9 14 207 9 212 -6z" fill="#FFFFFF" stroke="none"/>
</g>
</svg>
